<svg
    width="91"
    height="21"
    viewBox="0 0 91 21"
    fill="none"
    xmlns="http://www.w3.org/2000/svg"
  >
    <path
      fill-rule="evenodd"
      clip-rule="evenodd"
      d="M46.9222 19.0166H43.9721V11.0721H41.9247V8.20875H43.9721V5.75919C43.9721 4.8075 44.2784 3.88064 44.9232 3.19377C45.5922 2.5069 46.5675 2.0683 47.97 2.0683C48.5423 2.0683 49.0098 2.08485 49.3806 2.12623L49.9368 2.18416L49.8723 4.86543L49.3322 4.85715C48.9776 4.84888 48.5584 4.84888 48.0829 4.84888C47.0914 4.84888 46.9222 5.32886 46.9222 6.12331V8.20875H49.9529L49.8239 11.0721H46.9222V19.0166Z"
      fill="#A1151A"
    />
    <path
      fill-rule="evenodd"
      clip-rule="evenodd"
      d="M74.1909 18.2155L74.2096 18.1968C73.2089 17.8977 72.2643 17.4398 71.3851 16.8884C71.6844 16.9351 71.993 16.9444 72.3204 16.9444C73.2463 16.9444 74.1255 16.7949 74.9485 16.4958C75.7529 16.2248 76.5198 15.7949 77.1932 15.2715C76.3421 15.2715 75.5471 14.9631 74.8924 14.4865C74.2658 13.9818 73.7794 13.337 73.5269 12.5332C73.7514 12.58 74.0039 12.608 74.2564 12.608C74.6305 12.608 74.9485 12.5519 75.3039 12.4772C74.4061 12.2809 73.6204 11.8136 73.0405 11.1407C72.4887 10.4398 72.1427 9.58934 72.1427 8.63607V8.58C72.6664 8.87906 73.265 9.03794 73.9197 9.06598C72.8628 8.36505 72.1801 7.16879 72.1801 5.79497C72.1801 5.09404 72.3765 4.4118 72.7038 3.83236C73.6859 5.00992 74.883 5.98188 76.2579 6.71085C77.6328 7.41178 79.1666 7.85103 80.794 7.9258C80.7473 7.65477 80.7005 7.3557 80.7005 7.0286C80.7005 5.95384 81.1401 4.9632 81.8415 4.26227C82.571 3.5333 83.525 3.10339 84.6287 3.10339C85.7604 3.10339 86.7892 3.58003 87.4906 4.35572C88.3885 4.17815 89.2115 3.85105 89.9878 3.40246C89.6885 4.29965 89.0806 5.066 88.2576 5.57067C89.0619 5.46787 89.8195 5.25291 90.5209 4.95385C89.9972 5.72955 89.3331 6.41179 88.5568 6.99122C88.5568 7.14075 88.5755 7.31832 88.5755 7.49589C88.5755 8.79495 88.3324 10.1034 87.846 11.4304C87.3597 12.7575 86.6395 13.9538 85.6949 15.0286C84.7503 16.1033 83.5812 16.9818 82.1876 17.6641C80.794 18.3463 79.1947 18.6827 77.3896 18.6827C76.286 18.6827 75.2197 18.5145 74.1909 18.2155Z"
      fill="#A1151A"
    />
    <path
      d="M10.108 0.79364C7.36304 0.79364 7.01856 0.805633 5.94046 0.854658C4.86447 0.903893 4.13002 1.07411 3.48738 1.32386C2.82262 1.58182 2.25873 1.92688 1.69694 2.48846C1.13474 3.04982 0.789408 3.61328 0.530413 4.27732C0.279841 4.91969 0.109283 5.6538 0.0608532 6.72855C0.0126338 7.80583 0 8.15026 0 10.8931C0 13.636 0.012213 13.9791 0.0610641 15.0564C0.110547 16.1316 0.280894 16.8655 0.530624 17.5076C0.788987 18.1719 1.13431 18.7353 1.69631 19.2967C2.25789 19.8585 2.82178 20.2044 3.48612 20.4623C4.12918 20.7121 4.86384 20.8823 5.93962 20.9316C7.01771 20.9806 7.36199 20.9926 10.1067 20.9926C12.8518 20.9926 13.1953 20.9806 14.2734 20.9316C15.3494 20.8823 16.0846 20.7121 16.7277 20.4623C17.3923 20.2044 17.9553 19.8585 18.5169 19.2967C19.0791 18.7353 19.4244 18.1719 19.6834 17.5078C19.9319 16.8655 20.1024 16.1314 20.153 15.0566C20.2014 13.9793 20.214 13.636 20.214 10.8931C20.214 8.15026 20.2014 7.80604 20.153 6.72876C20.1024 5.65359 19.9319 4.91969 19.6834 4.27753C19.4244 3.61328 19.0791 3.04982 18.5169 2.48846C17.9547 1.92667 17.3925 1.58161 16.7271 1.32386C16.0828 1.07411 15.3479 0.903893 14.2719 0.854658C13.1938 0.805633 12.8506 0.79364 10.1048 0.79364H10.108ZM9.20127 2.61365C9.47038 2.61323 9.77064 2.61365 10.108 2.61365C12.8066 2.61365 13.1264 2.62333 14.1921 2.67172C15.1775 2.71675 15.7124 2.88128 16.0686 3.01952C16.5403 3.20257 16.8766 3.42139 17.2301 3.77488C17.5839 4.12836 17.8029 4.46501 17.9865 4.93631C18.1248 5.2919 18.2897 5.82633 18.3345 6.81103C18.383 7.87568 18.3935 8.1955 18.3935 10.8908C18.3935 13.5861 18.383 13.9059 18.3345 14.9706C18.2895 15.9553 18.1248 16.4897 17.9865 16.8453C17.8033 17.3166 17.5839 17.6522 17.2301 18.0054C16.8764 18.3589 16.5405 18.5777 16.0686 18.7608C15.7128 18.8997 15.1775 19.0638 14.1921 19.1088C13.1266 19.1572 12.8066 19.1677 10.108 19.1677C7.40915 19.1677 7.08931 19.1572 6.02385 19.1088C5.0384 19.0634 4.50357 18.8988 4.14708 18.7606C3.67541 18.5775 3.33851 18.3587 2.98476 18.0052C2.63101 17.6518 2.41202 17.3159 2.22841 16.8444C2.09007 16.4888 1.9252 15.9544 1.88035 14.9697C1.83192 13.9051 1.82223 13.5852 1.82223 10.8883C1.82223 8.19129 1.83192 7.87316 1.88035 6.8085C1.92541 5.82381 2.09007 5.28937 2.22841 4.93337C2.4116 4.46206 2.63101 4.12541 2.98476 3.77193C3.33851 3.41845 3.67541 3.19963 4.14708 3.01615C4.50336 2.87729 5.0384 2.71317 6.02385 2.66793C6.95623 2.62585 7.31756 2.61323 9.20127 2.61112V2.61365ZM15.5031 4.29058C14.8335 4.29058 14.2902 4.83279 14.2902 5.50209C14.2902 6.17118 14.8335 6.71403 15.5031 6.71403C16.1727 6.71403 16.7159 6.17118 16.7159 5.50209C16.7159 4.833 16.1727 4.29016 15.5031 4.29016V4.29058ZM10.108 5.70661C7.24154 5.70661 4.91754 8.02885 4.91754 10.8931C4.91754 13.7574 7.24154 16.0785 10.108 16.0785C12.9744 16.0785 15.2976 13.7574 15.2976 10.8931C15.2976 8.02885 12.9742 5.70661 10.1078 5.70661H10.108ZM10.108 7.52662C11.9685 7.52662 13.477 9.03375 13.477 10.8931C13.477 12.7522 11.9685 14.2596 10.108 14.2596C8.2472 14.2596 6.73892 12.7522 6.73892 10.8931C6.73892 9.03375 8.2472 7.52662 10.108 7.52662Z"
      fill="#A1151A"
    />
  </svg>